<?xml version="1.0" standalone="no"?>
<svg xmlns="http://www.w3.org/2000/svg" viewBox="0 0 177.857 36" width="177.857" height="36"><g fill="#f5f4f7" color="#f5f4f7" transform="translate(0 3.9999999999999982) scale(0.2800001)"><svg width="100.0" height="100.0" x="0.0" y="0.0" viewBox="0 0 100 100"><g><path fill="currentColor" d="M52.438,9.118c0-1.963-1.59-3.559-3.554-3.559c-1.965,0-3.556,1.596-3.556,3.559V18h7.109V9.118z"></path><path fill="currentColor" d="M22.614,22.989l2.924,9.867c0.242-0.073,0.491-0.125,0.75-0.125h28.112c1.391,0,2.513,1.12,2.513,2.51   c0,1.384-1.122,2.507-2.513,2.507H26.992l5.68,19.175c0.207-0.061,0.417-0.093,0.644-0.093h14.726c1.391,0,2.514,1.12,2.514,2.51   c0,1.381-1.123,2.507-2.514,2.507H34.129l4.624,15.575h20.261l9.581-32.304H41.014c-1.381,0-2.503-1.129-2.503-2.513   c0-1.387,1.122-2.513,2.503-2.513h28.787c0.096,0,0.178,0.022,0.268,0.029l5.083-17.131H22.614z"></path><path fill="currentColor" d="M45.329,91.36c0,1.975,1.591,3.565,3.556,3.565c1.964,0,3.554-1.591,3.554-3.565v-8.502h-7.109V91.36z"></path></g></svg></g><path fill="#f5f4f7" fill-rule="nonzero" d="M12.66 15.77L12.66 15.77Q12.52 17.34 11.72 18.59Q10.92 19.83 9.69 20.68Q8.46 21.54 6.91 21.98Q5.37 22.43 3.73 22.43L3.73 22.43Q3.12 22.43 2.59 22.35Q2.06 22.27 1.64 22.15Q1.22 22.03 0.93 21.93Q0.63 21.82 0.52 21.75L0.52 21.75Q0.30 21.63 0.18 21.46Q0.05 21.28 0.02 20.95L0.02 20.95Q0 20.77 0 20.66Q0 20.55 0.02 20.44Q0.05 20.32 0.11 20.12Q0.16 19.92 0.26 19.57L0.26 19.57Q0.30 19.36 0.62 18.25Q0.94 17.13 1.38 15.53Q1.83 13.92 2.36 12.05Q2.88 10.17 3.38 8.41Q3.87 6.66 4.27 5.24Q4.66 3.82 4.85 3.14L4.85 3.14Q4.52 3.38 4.21 3.63Q3.89 3.89 3.56 4.20L3.56 4.20Q3.21 4.52 2.87 4.42Q2.53 4.31 2.39 3.84L2.39 3.84Q2.34 3.61 2.32 3.35L2.32 3.35Q2.30 3.14 2.33 2.87Q2.37 2.60 2.51 2.34L2.51 2.34Q3.28 1.88 4.02 1.55Q4.76 1.22 5.44 0.96L5.44 0.96Q5.58 0.56 5.75 0.35Q5.93 0.14 6.12 0.07Q6.30 0 6.52 0.02Q6.73 0.05 6.96 0.09L6.96 0.09Q7.48 0.21 7.64 0.42L7.64 0.42Q7.97 0.38 8.27 0.35Q8.58 0.33 8.91 0.33L8.91 0.33Q10.27 0.33 11.27 0.68Q12.28 1.03 12.93 1.63Q13.57 2.23 13.85 3.02Q14.13 3.82 14.06 4.71L14.06 4.71Q13.99 5.48 13.65 6.32Q13.31 7.15 12.75 7.96Q12.19 8.77 11.44 9.53Q10.69 10.29 9.77 10.92L9.77 10.92Q10.50 11.34 11.06 11.91Q11.63 12.47 12 13.13Q12.38 13.78 12.54 14.46Q12.70 15.14 12.66 15.77ZM4.90 10.03L4.90 10.03Q4.85 10.27 4.79 10.50Q4.73 10.73 4.66 10.99L4.66 10.99Q4.95 10.69 5.61 10.43Q6.28 10.17 6.89 10.17L6.89 10.17Q7.22 10.17 7.52 10.21Q7.83 10.24 8.11 10.29L8.11 10.29Q8.77 9.87 9.38 9.20Q9.98 8.53 10.44 7.77Q10.90 7.01 11.19 6.21Q11.48 5.41 11.55 4.73L11.55 4.73Q11.70 3.12 11.00 2.33Q10.31 1.55 9.05 1.55L9.05 1.55Q8.20 1.55 7.29 1.85L7.29 1.85Q7.10 2.46 6.82 3.36Q6.54 4.27 6.22 5.34Q5.91 6.42 5.55 7.62Q5.20 8.81 4.90 10.03ZM4.50 11.58L4.50 11.58Q4.17 12.84 3.84 14.32L3.84 14.32Q3.54 15.59 3.19 17.26Q2.84 18.94 2.44 20.84L2.44 20.84Q2.58 20.95 2.81 21Q3.05 21.05 3.28 21.09L3.28 21.09Q3.54 21.14 3.84 21.14L3.84 21.14Q4.90 21.14 5.99 20.71Q7.08 20.27 7.99 19.48Q8.91 18.68 9.53 17.54Q10.15 16.41 10.27 15L10.27 15Q10.31 14.37 10.18 13.86Q10.05 13.36 9.81 12.95Q9.56 12.54 9.25 12.22Q8.93 11.91 8.58 11.67L8.58 11.67Q7.50 12.26 6.21 12.66L6.21 12.66Q5.79 12.77 5.48 12.69Q5.18 12.61 4.97 12.43Q4.76 12.26 4.64 12.02Q4.52 11.79 4.50 11.58ZM21.63 14.25L21.63 14.25Q21.40 15.14 21 15.91Q20.60 16.69 20.05 17.25Q19.50 17.81 18.81 18.13Q18.12 18.45 17.30 18.45L17.30 18.45Q16.34 18.45 15.79 18.04Q15.23 17.63 14.96 17.02Q14.70 16.41 14.64 15.68Q14.58 14.95 14.58 14.32L14.58 14.32Q14.58 13.88 14.68 13.34Q14.79 12.80 14.98 12.23Q15.16 11.67 15.46 11.11Q15.75 10.55 16.15 10.08L16.15 10.08Q16.29 9.68 16.58 9.38Q16.88 9.07 17.26 8.87Q17.65 8.67 18.09 8.57Q18.54 8.46 18.96 8.46L18.96 8.46Q19.03 8.46 19.09 8.48Q19.15 8.51 19.22 8.53L19.22 8.53Q19.52 8.55 19.98 8.77Q20.44 8.98 20.87 9.40Q21.30 9.82 21.61 10.46Q21.91 11.11 21.91 12.02L21.91 12.02Q21.91 12.21 21.89 12.48Q21.87 12.75 21.84 12.94L21.84 12.94Q22.38 12.73 22.97 12.42Q23.55 12.12 24.11 11.78Q24.66 11.44 25.13 11.09Q25.59 10.73 25.88 10.45L25.88 10.45Q26.11 10.24 26.27 10.22Q26.44 10.20 26.51 10.31Q26.58 10.43 26.53 10.64Q26.48 10.85 26.27 11.11L26.27 11.11Q26.16 11.25 25.68 11.67Q25.20 12.09 24.54 12.59Q23.88 13.08 23.11 13.55Q22.34 14.02 21.63 14.25ZM17.67 10.69L17.67 10.69Q17.60 10.90 17.60 11.13L17.60 11.13Q17.60 11.51 17.65 11.92Q17.70 12.33 17.88 12.66Q18.07 12.98 18.48 13.21Q18.89 13.43 19.62 13.43L19.62 13.43Q19.73 13.43 19.85 13.42Q19.97 13.41 20.09 13.38L20.09 13.38Q20.16 13.08 20.21 12.83Q20.27 12.59 20.27 12.40L20.27 12.40Q20.32 11.95 20.27 11.48Q20.23 11.02 20.10 10.63Q19.97 10.24 19.77 10.00Q19.57 9.75 19.29 9.75L19.29 9.75Q18.84 9.75 18.43 10.00Q18.02 10.24 17.67 10.69ZM16.17 14.81L16.17 14.81Q16.17 15.23 16.22 15.64Q16.27 16.05 16.41 16.37Q16.55 16.69 16.78 16.89Q17.02 17.09 17.39 17.09L17.39 17.09Q17.81 17.09 18.16 16.89Q18.52 16.69 18.80 16.37Q19.08 16.05 19.30 15.64Q19.52 15.23 19.69 14.79L19.69 14.79Q19.52 14.81 19.37 14.82Q19.22 14.84 19.03 14.84L19.03 14.84Q18.14 14.84 17.50 14.31Q16.85 13.78 16.50 12.96L16.50 12.96Q16.36 13.45 16.27 13.92Q16.17 14.39 16.17 14.81ZM27.45 17.18L27.45 17.18Q27.59 17.27 27.81 17.27Q28.03 17.27 28.25 17.18Q28.48 17.09 28.68 16.92Q28.88 16.76 28.97 16.50L28.97 16.50Q29.06 16.24 28.97 15.76Q28.88 15.28 28.68 14.73Q28.48 14.18 28.24 13.62Q28.01 13.05 27.84 12.59L27.84 12.59Q27.70 12.23 27.61 11.93L27.61 11.93Q27.52 11.67 27.43 11.43Q27.35 11.18 27.30 11.09L27.30 11.09Q27.19 11.27 26.89 11.70Q26.60 12.12 26.26 12.57Q25.92 13.03 25.62 13.42Q25.31 13.80 25.20 13.95L25.20 13.95Q25.01 14.16 24.83 14.19Q24.66 14.23 24.54 14.12Q24.42 14.02 24.41 13.82Q24.40 13.62 24.59 13.34L24.59 13.34Q24.73 13.15 25.01 12.74Q25.29 12.33 25.57 11.89Q25.85 11.46 26.09 11.12Q26.32 10.78 26.34 10.71L26.34 10.71Q26.39 10.52 26.21 10.22Q26.04 9.91 26.16 9.52L26.16 9.52Q26.25 9.19 26.58 8.75Q26.91 8.32 27.35 7.97Q27.80 7.62 28.27 7.44Q28.73 7.27 29.11 7.45L29.11 7.45Q29.41 7.64 29.60 7.86Q29.79 8.09 29.74 8.32L29.74 8.32Q29.70 8.44 29.60 8.63L29.60 8.63Q29.51 8.81 29.32 9.08Q29.13 9.35 28.78 9.77L28.78 9.77Q28.85 10.31 28.98 10.76Q29.11 11.20 29.23 11.53L29.23 11.53Q29.37 11.93 29.53 12.26L29.53 12.26Q29.74 12.68 29.98 13.13Q30.21 13.57 30.40 14.00Q30.59 14.44 30.70 14.81Q30.82 15.19 30.77 15.45L30.77 15.45Q30.70 15.84 30.36 16.41Q30.02 16.97 29.52 17.50Q29.02 18.02 28.37 18.40Q27.73 18.77 27.02 18.77L27.02 18.77Q26.53 18.77 26.07 18.47Q25.62 18.16 25.30 17.75Q24.98 17.34 24.83 16.95Q24.68 16.55 24.80 16.34L24.80 16.34Q24.94 16.05 25.05 15.89Q25.17 15.73 25.41 15.52L25.41 15.52Q25.50 15.45 25.64 15.35L25.64 15.35Q25.76 15.28 25.97 15.21Q26.18 15.14 26.46 15.05L26.46 15.05Q26.70 15.77 26.88 16.18Q27.07 16.59 27.19 16.83L27.19 16.83Q27.33 17.09 27.45 17.18ZM30.89 27.98L30.89 27.98Q30.73 27.91 30.56 27.77L30.56 27.77Q30.42 27.66 30.28 27.48Q30.14 27.30 30.05 27.05L30.05 27.05Q30.70 24.54 31.16 22.69Q31.62 20.84 31.95 19.59L31.95 19.59Q32.30 18.14 32.55 17.16L32.55 17.16Q32.79 16.22 33.02 15.28L33.02 15.28Q33.21 14.46 33.43 13.52Q33.66 12.59 33.84 11.77L33.84 11.77Q34.08 10.85 34.13 10.30Q34.17 9.75 33.77 9.35L33.77 9.35Q34.05 9.12 34.35 8.99Q34.64 8.86 34.88 8.81L34.88 8.81Q35.13 8.74 35.39 8.77L35.39 8.77Q36.02 8.81 36.18 9.16Q36.33 9.52 36.21 10.29L36.21 10.29Q36.19 10.41 36.18 10.49Q36.16 10.57 36.16 10.66L36.16 10.66Q36.49 10.29 36.89 9.94Q37.29 9.59 37.70 9.30Q38.11 9.02 38.54 8.85Q38.98 8.67 39.38 8.67L39.38 8.67Q39.91 8.67 40.25 8.94Q40.59 9.21 40.78 9.66Q40.97 10.10 41.02 10.65Q41.06 11.20 41.04 11.74L41.04 11.74Q41.02 12.33 40.84 12.98Q40.66 13.64 40.36 14.32Q40.05 15 39.66 15.66Q39.26 16.31 38.81 16.88L38.81 16.88Q38.91 16.90 38.93 16.91Q38.95 16.92 38.95 16.93Q38.95 16.95 38.99 16.96Q39.02 16.97 39.14 16.97L39.14 16.97Q39.68 16.97 40.24 16.69Q40.80 16.41 41.34 15.97Q41.88 15.54 42.39 15.02Q42.89 14.51 43.30 14.03Q43.71 13.55 43.99 13.16Q44.27 12.77 44.41 12.61L44.41 12.61Q44.60 12.38 44.77 12.29Q44.93 12.21 45.02 12.28Q45.12 12.35 45.12 12.55Q45.12 12.75 44.98 13.05L44.98 13.05Q44.88 13.27 44.58 13.73Q44.27 14.20 43.83 14.79Q43.38 15.38 42.81 16.01Q42.23 16.64 41.60 17.16Q40.97 17.67 40.30 18.01Q39.63 18.35 39 18.35L39 18.35Q38.70 18.35 38.51 18.33Q38.32 18.30 38.19 18.25Q38.06 18.19 37.95 18.13Q37.83 18.07 37.66 18L37.66 18Q37.24 18.33 36.80 18.50Q36.35 18.68 35.93 18.68L35.93 18.68Q35.53 18.68 35.24 18.55Q34.95 18.42 34.76 18.20Q34.57 17.98 34.45 17.71Q34.34 17.44 34.27 17.18L34.27 17.18Q34.24 17.27 34.23 17.34Q34.22 17.41 34.20 17.53L34.20 17.53Q33.91 18.66 33.61 20.13L33.61 20.13Q33.35 21.40 32.99 23.21Q32.63 25.03 32.23 27.35L32.23 27.35Q32.09 27.98 31.72 28.08Q31.36 28.17 30.89 27.98ZM35.18 13.45L35.18 13.45Q35.06 13.85 34.93 14.38Q34.80 14.91 34.64 15.63L34.64 15.63Q34.83 15.49 35.06 15.42Q35.30 15.35 35.53 15.35L35.53 15.35Q35.79 15.35 36.19 15.62Q36.59 15.89 37.15 16.20L37.15 16.20Q37.50 15.77 37.89 15.25Q38.27 14.72 38.59 14.16Q38.91 13.59 39.13 13.01Q39.35 12.42 39.38 11.88L39.38 11.88Q39.42 11.18 39.21 10.78Q39 10.38 38.51 10.38L38.51 10.38Q37.78 10.38 36.93 11.24Q36.07 12.09 35.18 13.45ZM55.50 12.82L55.50 12.82Q55.66 12.63 55.84 12.62Q56.02 12.61 56.12 12.71Q56.23 12.82 56.21 13.03Q56.20 13.24 56.02 13.50L56.02 13.50Q55.57 14.11 54.98 14.75Q54.40 15.40 53.73 16.01Q53.06 16.62 52.38 17.16Q51.70 17.70 51.07 18.05L51.07 18.05Q50.37 18.45 49.89 18.45Q49.41 18.45 48.94 17.84L48.94 17.84Q48.52 17.30 48.53 16.68Q48.54 16.05 48.80 15.12L48.80 15.12Q48.96 14.53 49.25 13.72Q49.55 12.91 49.72 12.16Q49.90 11.41 49.83 10.89Q49.76 10.36 49.22 10.36L49.22 10.36Q48.84 10.36 48.41 10.62Q47.98 10.88 47.54 11.29Q47.11 11.70 46.71 12.21Q46.31 12.73 46.01 13.22L46.01 13.22Q45.82 14.13 45.63 15.02L45.63 15.02Q45.47 15.77 45.29 16.65Q45.12 17.53 44.95 18.21L44.95 18.21Q44.81 18.33 44.65 18.38Q44.48 18.42 44.34 18.42L44.34 18.42Q44.18 18.42 44.02 18.40L44.02 18.40Q43.83 18.35 43.66 18.26L43.66 18.26Q43.52 18.16 43.38 18.01Q43.24 17.86 43.17 17.60L43.17 17.60Q44.23 13.27 44.84 10.64Q45.45 8.02 45.77 6.63L45.77 6.63Q46.15 4.99 46.29 4.36L46.29 4.36Q46.36 3.91 46.41 3.49L46.41 3.49Q46.45 3.12 46.45 2.72Q46.45 2.32 46.38 1.99L46.38 1.99Q46.57 1.88 46.79 1.80Q47.02 1.73 47.23 1.69L47.23 1.69Q47.48 1.62 47.74 1.57L47.74 1.57Q48 1.52 48.21 1.52L48.21 1.52Q48.40 1.52 48.56 1.56Q48.73 1.59 48.77 1.71L48.77 1.71Q48.91 1.83 48.90 2.18Q48.89 2.53 48.84 2.91L48.84 2.91Q48.75 3.35 48.63 3.87L48.63 3.87Q48.14 5.77 47.53 7.56Q46.92 9.35 46.41 11.39L46.41 11.39Q46.71 10.92 47.13 10.43Q47.55 9.94 48.06 9.53Q48.56 9.12 49.13 8.85Q49.69 8.58 50.32 8.58L50.32 8.58Q50.65 8.58 50.94 8.68Q51.23 8.79 51.46 9.04Q51.68 9.28 51.80 9.69Q51.91 10.10 51.89 10.71L51.89 10.71Q51.89 11.09 51.81 11.48Q51.73 11.88 51.59 12.36Q51.45 12.84 51.22 13.43Q51 14.02 50.70 14.79L50.70 14.79Q50.48 15.33 50.37 15.70Q50.25 16.08 50.41 16.36L50.41 16.36Q50.63 16.73 51.25 16.54Q51.87 16.34 53.11 15.33L53.11 15.33Q53.39 15.09 53.74 14.74Q54.09 14.39 54.42 14.03Q54.75 13.66 55.03 13.34Q55.31 13.01 55.50 12.82ZM61.52 14.25L61.52 14.25Q61.29 15.14 60.89 15.91Q60.49 16.69 59.94 17.25Q59.39 17.81 58.70 18.13Q58.01 18.45 57.19 18.45L57.19 18.45Q56.23 18.45 55.68 18.04Q55.13 17.63 54.86 17.02Q54.59 16.41 54.53 15.68Q54.47 14.95 54.47 14.32L54.47 14.32Q54.47 13.88 54.57 13.34Q54.68 12.80 54.87 12.23Q55.05 11.67 55.35 11.11Q55.64 10.55 56.04 10.08L56.04 10.08Q56.18 9.68 56.47 9.38Q56.77 9.07 57.15 8.87Q57.54 8.67 57.98 8.57Q58.43 8.46 58.85 8.46L58.85 8.46Q58.92 8.46 58.98 8.48Q59.04 8.51 59.11 8.53L59.11 8.53Q59.41 8.55 59.87 8.77Q60.33 8.98 60.76 9.40Q61.20 9.82 61.50 10.46Q61.80 11.11 61.80 12.02L61.80 12.02Q61.80 12.21 61.78 12.48Q61.76 12.75 61.73 12.94L61.73 12.94Q62.27 12.73 62.86 12.42Q63.45 12.12 64.00 11.78Q64.55 11.44 65.02 11.09Q65.48 10.73 65.77 10.45L65.77 10.45Q66 10.24 66.16 10.22Q66.33 10.20 66.40 10.31Q66.47 10.43 66.42 10.64Q66.38 10.85 66.16 11.11L66.16 11.11Q66.05 11.25 65.57 11.67Q65.09 12.09 64.43 12.59Q63.77 13.08 63 13.55Q62.23 14.02 61.52 14.25ZM57.56 10.69L57.56 10.69Q57.49 10.90 57.49 11.13L57.49 11.13Q57.49 11.51 57.54 11.92Q57.59 12.33 57.77 12.66Q57.96 12.98 58.37 13.21Q58.78 13.43 59.51 13.43L59.51 13.43Q59.63 13.43 59.74 13.42Q59.86 13.41 59.98 13.38L59.98 13.38Q60.05 13.08 60.11 12.83Q60.16 12.59 60.16 12.40L60.16 12.40Q60.21 11.95 60.16 11.48Q60.12 11.02 59.99 10.63Q59.86 10.24 59.66 10.00Q59.46 9.75 59.18 9.75L59.18 9.75Q58.73 9.75 58.32 10.00Q57.91 10.24 57.56 10.69ZM56.06 14.81L56.06 14.81Q56.06 15.23 56.11 15.64Q56.16 16.05 56.30 16.37Q56.44 16.69 56.67 16.89Q56.91 17.09 57.28 17.09L57.28 17.09Q57.70 17.09 58.05 16.89Q58.41 16.69 58.69 16.37Q58.97 16.05 59.19 15.64Q59.41 15.23 59.58 14.79L59.58 14.79Q59.41 14.81 59.26 14.82Q59.11 14.84 58.92 14.84L58.92 14.84Q58.03 14.84 57.39 14.31Q56.74 13.78 56.39 12.96L56.39 12.96Q56.25 13.45 56.16 13.92Q56.06 14.39 56.06 14.81ZM63.14 17.86L63.14 17.86Q62.98 18.12 62.78 18.20Q62.58 18.28 62.43 18.22Q62.27 18.16 62.23 17.98Q62.18 17.79 62.32 17.51L62.32 17.51Q62.39 17.37 62.64 16.88Q62.88 16.38 63.22 15.69Q63.56 15 63.96 14.19Q64.36 13.38 64.72 12.66Q65.09 11.93 65.39 11.36Q65.70 10.78 65.84 10.52L65.84 10.52Q65.58 10.29 65.48 10.18Q65.39 10.08 65.34 9.73L65.34 9.73Q65.30 9.42 65.48 8.93Q65.67 8.44 65.98 7.98Q66.28 7.52 66.66 7.20Q67.03 6.87 67.38 6.87L67.38 6.87Q68.04 6.87 68.31 7.29Q68.58 7.71 68.63 8.16L68.63 8.16Q68.67 8.46 68.58 8.93Q68.48 9.40 68.23 9.77L68.23 9.77Q68.30 9.82 68.41 9.88Q68.53 9.94 68.79 9.94L68.79 9.94Q69.16 9.94 69.32 9.89Q69.47 9.84 69.80 9.84L69.80 9.84Q70.20 9.84 70.45 10.04Q70.71 10.24 70.88 10.54Q71.04 10.83 71.12 11.17Q71.20 11.51 71.23 11.79L71.23 11.79Q71.30 12.38 70.92 13.01Q70.55 13.64 70.01 14.39L70.01 14.39Q69.68 14.86 69.35 15.45Q69.02 16.03 69.07 16.50L69.07 16.50Q69.12 16.80 69.23 16.99Q69.35 17.18 69.89 17.18L69.89 17.18Q70.29 17.18 70.77 16.89Q71.25 16.59 71.75 16.14Q72.26 15.68 72.75 15.13Q73.24 14.58 73.66 14.05Q74.09 13.52 74.38 13.10Q74.67 12.68 74.81 12.49L74.81 12.49Q74.93 12.30 75.12 12.23Q75.30 12.16 75.45 12.23Q75.59 12.30 75.62 12.52Q75.66 12.73 75.45 13.08L75.45 13.08Q75.30 13.31 74.96 13.83Q74.63 14.34 74.14 14.98Q73.66 15.61 73.08 16.28Q72.49 16.95 71.85 17.50Q71.20 18.05 70.56 18.40Q69.91 18.75 69.33 18.75L69.33 18.75Q68.72 18.75 68.32 18.52Q67.92 18.28 67.68 17.94Q67.43 17.60 67.32 17.19Q67.22 16.78 67.24 16.43L67.24 16.43Q67.27 16.15 67.39 15.83Q67.52 15.52 67.70 15.18Q67.88 14.84 68.07 14.50Q68.27 14.16 68.44 13.83L68.44 13.83Q68.84 13.15 69.08 12.67Q69.33 12.19 69.33 11.86L69.33 11.86Q69.33 11.65 69.23 11.48Q69.14 11.32 68.93 11.32L68.93 11.32Q68.79 11.32 68.73 11.33Q68.67 11.34 68.61 11.34Q68.55 11.34 68.45 11.36Q68.34 11.37 68.13 11.37L68.13 11.37Q67.83 11.37 67.62 11.27Q67.41 11.18 67.22 11.13L67.22 11.13Q67.13 11.30 66.80 11.84Q66.47 12.38 66.04 13.10Q65.60 13.83 65.12 14.63Q64.64 15.42 64.22 16.11Q63.80 16.80 63.50 17.29Q63.21 17.77 63.14 17.86ZM76.69 18.35L76.69 18.35Q75.80 18.35 75.23 18.07Q74.67 17.79 74.36 17.38Q74.04 16.97 73.91 16.49Q73.78 16.01 73.78 15.61L73.78 15.61Q73.78 14.91 73.90 14.12Q74.02 13.34 74.18 12.67Q74.34 12 74.47 11.53Q74.60 11.06 74.65 10.95L74.65 10.95Q74.86 10.27 75.20 9.76Q75.54 9.26 76.15 9.07L76.15 9.07Q76.38 9.02 76.64 8.98L76.64 8.98Q76.85 8.95 77.07 8.95Q77.30 8.95 77.48 9.02L77.48 9.02Q76.85 10.64 76.49 11.72Q76.13 12.80 75.94 13.48L75.94 13.48Q75.73 14.25 75.68 14.72L75.68 14.72Q75.56 15.77 75.87 16.31Q76.17 16.85 77.11 16.85L77.11 16.85Q77.72 16.85 78.28 16.39Q78.84 15.94 79.31 15.21L79.31 15.21Q79.24 14.84 79.24 14.44L79.24 14.44Q79.24 13.69 79.37 12.97Q79.50 12.26 79.68 11.64Q79.85 11.02 80.05 10.52Q80.25 10.03 80.39 9.75L80.39 9.75Q80.65 9.19 80.86 9.06Q81.07 8.93 81.54 8.91L81.54 8.91Q81.73 8.88 81.86 8.89Q81.98 8.91 82.08 8.93L82.08 8.93Q82.36 9 82.36 9.21L82.36 9.21Q82.36 9.59 82.31 10.34Q82.27 11.09 82.03 11.88L82.03 11.88Q81.87 12.54 81.71 13.00Q81.56 13.45 81.42 13.77Q81.28 14.09 81.14 14.29Q81 14.48 80.88 14.65L80.88 14.65Q80.93 15.35 81 15.77Q81.07 16.20 81.18 16.42Q81.28 16.64 81.43 16.72Q81.59 16.80 81.77 16.80L81.77 16.80Q82.10 16.80 82.55 16.49Q82.99 16.17 83.47 15.69Q83.95 15.21 84.43 14.64Q84.91 14.06 85.31 13.55Q85.71 13.03 85.99 12.64Q86.27 12.26 86.34 12.16L86.34 12.16Q86.51 11.95 86.66 11.91Q86.81 11.86 86.91 11.94Q87 12.02 87.01 12.20Q87.02 12.38 86.91 12.59L86.91 12.59Q86.44 13.48 85.75 14.47Q85.05 15.47 84.27 16.31Q83.48 17.16 82.69 17.72Q81.89 18.28 81.19 18.28L81.19 18.28Q80.55 18.28 80.19 17.85Q79.83 17.41 79.57 16.59L79.57 16.59Q79.03 17.44 78.30 17.89Q77.58 18.35 76.69 18.35ZM88.34 17.18L88.34 17.18Q88.48 17.27 88.70 17.27Q88.92 17.27 89.14 17.18Q89.37 17.09 89.57 16.92Q89.77 16.76 89.86 16.50L89.86 16.50Q89.95 16.24 89.86 15.76Q89.77 15.28 89.57 14.73Q89.37 14.18 89.13 13.62Q88.90 13.05 88.73 12.59L88.73 12.59Q88.59 12.23 88.50 11.93L88.50 11.93Q88.41 11.67 88.32 11.43Q88.24 11.18 88.20 11.09L88.20 11.09Q88.08 11.27 87.79 11.70Q87.49 12.12 87.15 12.57Q86.81 13.03 86.51 13.42Q86.20 13.80 86.09 13.95L86.09 13.95Q85.90 14.16 85.72 14.19Q85.55 14.23 85.43 14.12Q85.31 14.02 85.30 13.82Q85.29 13.62 85.48 13.34L85.48 13.34Q85.62 13.15 85.90 12.74Q86.18 12.33 86.46 11.89Q86.74 11.46 86.98 11.12Q87.21 10.78 87.23 10.71L87.23 10.71Q87.28 10.52 87.11 10.22Q86.93 9.91 87.05 9.52L87.05 9.52Q87.14 9.19 87.47 8.75Q87.80 8.32 88.24 7.97Q88.69 7.62 89.16 7.44Q89.63 7.27 90 7.45L90 7.45Q90.30 7.64 90.49 7.86Q90.68 8.09 90.63 8.32L90.63 8.32Q90.59 8.44 90.49 8.63L90.49 8.63Q90.40 8.81 90.21 9.08Q90.02 9.35 89.67 9.77L89.67 9.77Q89.74 10.31 89.87 10.76Q90 11.20 90.12 11.53L90.12 11.53Q90.26 11.93 90.42 12.26L90.42 12.26Q90.63 12.68 90.87 13.13Q91.10 13.57 91.29 14.00Q91.48 14.44 91.59 14.81Q91.71 15.19 91.66 15.45L91.66 15.45Q91.59 15.84 91.25 16.41Q90.91 16.97 90.41 17.50Q89.91 18.02 89.26 18.40Q88.62 18.77 87.91 18.77L87.91 18.77Q87.42 18.77 86.96 18.47Q86.51 18.16 86.19 17.75Q85.88 17.34 85.72 16.95Q85.57 16.55 85.69 16.34L85.69 16.34Q85.83 16.05 85.95 15.89Q86.06 15.73 86.30 15.52L86.30 15.52Q86.39 15.45 86.53 15.35L86.53 15.35Q86.65 15.28 86.86 15.21Q87.07 15.14 87.35 15.05L87.35 15.05Q87.59 15.77 87.77 16.18Q87.96 16.59 88.08 16.83L88.08 16.83Q88.22 17.09 88.34 17.18ZM105.33 22.55L105.33 22.55Q104.18 22.55 103.27 21.95Q102.35 21.35 101.72 20.32Q101.09 19.29 100.79 17.93Q100.50 16.57 100.57 15.05L100.57 15.05Q100.66 13.43 101.06 11.71Q101.46 9.98 102.14 8.34Q102.82 6.70 103.72 5.23Q104.63 3.75 105.71 2.65Q106.80 1.55 108.05 0.90Q109.29 0.26 110.65 0.26L110.65 0.26Q111.54 0.26 112.15 0.70Q112.76 1.15 113.10 1.86Q113.44 2.58 113.53 3.47Q113.63 4.36 113.52 5.24Q113.41 6.12 113.12 6.93Q112.83 7.73 112.41 8.25L112.41 8.25Q111.87 8.93 111.43 8.96Q111 9 110.60 8.72L110.60 8.72Q110.44 8.58 110.27 8.39L110.27 8.39Q110.11 8.23 109.92 7.98Q109.73 7.73 109.52 7.36L109.52 7.36Q109.97 7.20 110.34 6.81Q110.72 6.42 110.99 5.93Q111.26 5.44 111.41 4.89Q111.56 4.34 111.59 3.80L111.59 3.80Q111.61 3.38 111.56 2.96Q111.52 2.55 111.38 2.24Q111.23 1.92 110.99 1.72Q110.74 1.52 110.37 1.52L110.37 1.52Q109.43 1.52 108.54 2.24Q107.65 2.95 106.86 4.14Q106.08 5.32 105.41 6.84Q104.74 8.37 104.25 9.98Q103.76 11.60 103.45 13.17Q103.15 14.74 103.08 16.03L103.08 16.03Q102.98 17.65 103.20 18.66Q103.41 19.66 103.77 20.24Q104.13 20.81 104.55 21.01Q104.98 21.21 105.33 21.21L105.33 21.21Q105.98 21.21 106.80 20.60Q107.63 19.99 108.38 18.95Q109.13 17.91 109.72 16.55Q110.32 15.19 110.58 13.69L110.58 13.69Q109.99 13.69 109.39 13.70Q108.80 13.71 108.26 13.73Q107.72 13.76 107.30 13.79Q106.88 13.83 106.64 13.88L106.64 13.88Q106.48 13.80 106.42 13.71Q106.36 13.62 106.31 13.50L106.31 13.50Q106.27 13.41 106.27 13.27L106.27 13.27Q106.27 13.13 106.31 13.01L106.31 13.01Q106.36 12.89 106.43 12.76Q106.50 12.63 106.62 12.49L106.62 12.49Q107.37 12.35 108.09 12.26Q108.82 12.16 109.61 12.11Q110.39 12.05 111.29 12.01Q112.20 11.98 113.32 11.95L113.32 11.95Q113.79 11.93 113.89 12.07Q114 12.21 113.81 12.77L113.81 12.77Q113.67 13.22 113.45 13.50Q113.23 13.78 112.71 13.73L112.71 13.73Q112.55 13.73 112.45 13.71L112.45 13.71Q112.24 15.09 111.56 16.64Q110.88 18.19 109.90 19.50Q108.91 20.81 107.73 21.68Q106.55 22.55 105.33 22.55ZM114 17.86L114 17.86Q113.84 18.12 113.64 18.20Q113.44 18.28 113.29 18.22Q113.13 18.16 113.09 17.98Q113.04 17.79 113.18 17.51L113.18 17.51Q113.25 17.37 113.50 16.88Q113.74 16.38 114.08 15.69Q114.42 15 114.82 14.19Q115.22 13.38 115.58 12.66Q115.95 11.93 116.25 11.36Q116.55 10.78 116.70 10.52L116.70 10.52Q116.44 10.29 116.34 10.18Q116.25 10.08 116.20 9.73L116.20 9.73Q116.16 9.42 116.34 8.93Q116.53 8.44 116.84 7.98Q117.14 7.52 117.52 7.20Q117.89 6.87 118.24 6.87L118.24 6.87Q118.90 6.87 119.17 7.29Q119.44 7.71 119.48 8.16L119.48 8.16Q119.53 8.46 119.44 8.93Q119.34 9.40 119.09 9.77L119.09 9.77Q119.16 9.82 119.27 9.88Q119.39 9.94 119.65 9.94L119.65 9.94Q120.02 9.94 120.18 9.89Q120.33 9.84 120.66 9.84L120.66 9.84Q121.05 9.84 121.31 10.04Q121.57 10.24 121.73 10.54Q121.90 10.83 121.98 11.17Q122.06 11.51 122.09 11.79L122.09 11.79Q122.16 12.38 121.78 13.01Q121.41 13.64 120.87 14.39L120.87 14.39Q120.54 14.86 120.21 15.45Q119.88 16.03 119.93 16.50L119.93 16.50Q119.98 16.80 120.09 16.99Q120.21 17.18 120.75 17.18L120.75 17.18Q121.15 17.18 121.63 16.89Q122.11 16.59 122.61 16.14Q123.12 15.68 123.61 15.13Q124.10 14.58 124.52 14.05Q124.95 13.52 125.24 13.10Q125.53 12.68 125.67 12.49L125.67 12.49Q125.79 12.30 125.98 12.23Q126.16 12.16 126.30 12.23Q126.45 12.30 126.48 12.52Q126.52 12.73 126.30 13.08L126.30 13.08Q126.16 13.31 125.82 13.83Q125.48 14.34 125.00 14.98Q124.52 15.61 123.94 16.28Q123.35 16.95 122.71 17.50Q122.06 18.05 121.42 18.40Q120.77 18.75 120.19 18.75L120.19 18.75Q119.58 18.75 119.18 18.52Q118.78 18.28 118.54 17.94Q118.29 17.60 118.18 17.19Q118.08 16.78 118.10 16.43L118.10 16.43Q118.13 16.15 118.25 15.83Q118.38 15.52 118.56 15.18Q118.73 14.84 118.93 14.50Q119.13 14.16 119.30 13.83L119.30 13.83Q119.70 13.15 119.94 12.67Q120.19 12.19 120.19 11.86L120.19 11.86Q120.19 11.65 120.09 11.48Q120 11.32 119.79 11.32L119.79 11.32Q119.65 11.32 119.59 11.33Q119.53 11.34 119.47 11.34Q119.41 11.34 119.31 11.36Q119.20 11.37 118.99 11.37L118.99 11.37Q118.69 11.37 118.48 11.27Q118.27 11.18 118.08 11.13L118.08 11.13Q117.98 11.30 117.66 11.84Q117.33 12.38 116.89 13.10Q116.46 13.83 115.98 14.63Q115.50 15.42 115.08 16.11Q114.66 16.80 114.36 17.29Q114.07 17.77 114 17.86ZM129.80 4.17L129.80 4.17Q129.73 4.43 129.53 4.68Q129.33 4.92 129.08 5.07Q128.84 5.23 128.58 5.27Q128.32 5.32 128.16 5.18L128.16 5.18Q127.66 4.80 127.64 4.37Q127.62 3.94 127.85 3.55Q128.09 3.16 128.44 2.89Q128.79 2.63 129.05 2.58L129.05 2.58Q129.30 2.53 129.48 2.68Q129.66 2.84 129.75 3.08Q129.84 3.33 129.86 3.63Q129.87 3.94 129.80 4.17ZM126.56 9.16L126.56 9.16Q126.68 9.02 127.01 8.93Q127.34 8.84 127.69 8.78Q128.04 8.72 128.33 8.71Q128.63 8.70 128.67 8.72L128.67 8.72Q128.70 8.74 128.55 9.21Q128.41 9.68 128.20 10.31Q127.99 10.95 127.76 11.61Q127.52 12.28 127.41 12.70L127.41 12.70Q127.29 13.13 127.13 13.65Q126.96 14.18 126.83 14.68Q126.70 15.19 126.66 15.63Q126.61 16.08 126.73 16.31L126.73 16.31Q126.84 16.59 126.98 16.70Q127.13 16.80 127.29 16.80L127.29 16.80Q127.76 16.80 128.47 16.29Q129.19 15.77 129.93 15.06Q130.66 14.34 131.30 13.61Q131.93 12.87 132.23 12.42L132.23 12.42Q132.42 12.19 132.62 12.12Q132.82 12.05 132.95 12.14Q133.08 12.23 133.09 12.45Q133.10 12.66 132.94 12.94L132.94 12.94Q132.56 13.59 131.84 14.50Q131.11 15.40 130.29 16.23Q129.47 17.06 128.68 17.65Q127.90 18.23 127.41 18.26L127.41 18.26Q127.01 18.28 126.62 18.13Q126.23 17.98 125.92 17.71Q125.60 17.44 125.39 17.07Q125.18 16.71 125.16 16.31L125.16 16.31Q125.09 15.73 125.16 14.71Q125.23 13.69 125.41 12.62Q125.60 11.55 125.89 10.59Q126.19 9.63 126.56 9.16ZM130.88 17.60L130.88 17.60Q131.91 13.27 132.53 10.64Q133.15 8.02 133.48 6.63L133.48 6.63Q133.85 4.99 133.99 4.36L133.99 4.36Q134.06 3.91 134.11 3.49L134.11 3.49Q134.16 3.12 134.16 2.72Q134.16 2.32 134.09 1.99L134.09 1.99Q134.27 1.88 134.50 1.80Q134.72 1.73 134.93 1.69L134.93 1.69Q135.19 1.62 135.45 1.57L135.45 1.57Q135.70 1.52 135.91 1.52L135.91 1.52Q136.10 1.52 136.27 1.56Q136.43 1.59 136.48 1.71L136.48 1.71Q136.62 1.83 136.61 2.18Q136.59 2.53 136.55 2.91L136.55 2.91Q136.45 3.35 136.34 3.87L136.34 3.87Q136.05 4.88 135.56 6.77L135.56 6.77Q135.14 8.39 134.43 11.18Q133.71 13.97 132.63 18.21L132.63 18.21Q132.52 18.33 132.35 18.38Q132.19 18.42 132.05 18.42L132.05 18.42Q131.88 18.42 131.70 18.40L131.70 18.40Q131.53 18.35 131.37 18.26L131.37 18.26Q131.23 18.16 131.09 18.01Q130.95 17.86 130.88 17.60ZM136.13 17.60L136.13 17.60Q137.16 13.27 137.78 10.64Q138.40 8.02 138.73 6.63L138.73 6.63Q139.10 4.99 139.24 4.36L139.24 4.36Q139.31 3.91 139.36 3.49L139.36 3.49Q139.41 3.12 139.41 2.72Q139.41 2.32 139.34 1.99L139.34 1.99Q139.52 1.88 139.75 1.80Q139.97 1.73 140.18 1.69L140.18 1.69Q140.44 1.62 140.70 1.57L140.70 1.57Q140.95 1.52 141.16 1.52L141.16 1.52Q141.35 1.52 141.52 1.56Q141.68 1.59 141.73 1.71L141.73 1.71Q141.87 1.83 141.86 2.18Q141.84 2.53 141.80 2.91L141.80 2.91Q141.70 3.35 141.59 3.87L141.59 3.87Q141.30 4.88 140.81 6.77L140.81 6.77Q140.39 8.39 139.68 11.18Q138.96 13.97 137.88 18.21L137.88 18.21Q137.77 18.33 137.60 18.38Q137.44 18.42 137.30 18.42L137.30 18.42Q137.13 18.42 136.95 18.40L136.95 18.40Q136.78 18.35 136.62 18.26L136.62 18.26Q136.48 18.16 136.34 18.01Q136.20 17.86 136.13 17.60Z" transform="translate(36, 3.955)"></path></svg>